<svg xmlns="http://www.w3.org/2000/svg" viewBox="0 0 1200 760" role="img" aria-labelledby="title desc">
  <title id="title">CareTech AI Neural Network</title>
  <desc id="desc">Layered neural network illustration with input, hidden, and output nodes connected by weighted blue and orange links.</desc>
  <defs>
    <radialGradient id="bgGlowBlue" cx="24%" cy="28%" r="42%">
      <stop offset="0%" stop-color="#38BDF8" stop-opacity="0.22" />
      <stop offset="100%" stop-color="#38BDF8" stop-opacity="0" />
    </radialGradient>
    <radialGradient id="bgGlowOrange" cx="78%" cy="62%" r="38%">
      <stop offset="0%" stop-color="#F97316" stop-opacity="0.20" />
      <stop offset="100%" stop-color="#F97316" stop-opacity="0" />
    </radialGradient>
    <linearGradient id="mainBg" x1="0%" y1="0%" x2="100%" y2="100%">
      <stop offset="0%" stop-color="#050914" />
      <stop offset="55%" stop-color="#0B1220" />
      <stop offset="100%" stop-color="#020617" />
    </linearGradient>
    <filter id="blueGlow" x="-80%" y="-80%" width="260%" height="260%">
      <feGaussianBlur stdDeviation="7" result="blur" />
      <feMerge>
        <feMergeNode in="blur" />
        <feMergeNode in="SourceGraphic" />
      </feMerge>
    </filter>
    <filter id="orangeGlow" x="-80%" y="-80%" width="260%" height="260%">
      <feGaussianBlur stdDeviation="7" result="blur" />
      <feMerge>
        <feMergeNode in="blur" />
        <feMergeNode in="SourceGraphic" />
      </feMerge>
    </filter>
  </defs>

  <rect width="1200" height="760" fill="url(#mainBg)" />
  <rect width="1200" height="760" fill="url(#bgGlowBlue)" />
  <rect width="1200" height="760" fill="url(#bgGlowOrange)" />

  <g opacity="0.22">
    <path d="M0 120H1200M0 240H1200M0 360H1200M0 480H1200M0 600H1200" stroke="#94A3B8" stroke-width="1" />
    <path d="M120 0V760M240 0V760M360 0V760M480 0V760M600 0V760M720 0V760M840 0V760M960 0V760M1080 0V760" stroke="#94A3B8" stroke-width="1" />
  </g>

  <g opacity="0.32">
    <path d="M86 112H1114M86 248H1114M86 384H1114M86 520H1114M86 656H1114" stroke="#94A3B8" stroke-width="1" />
    <path d="M188 72V688M392 72V688M596 72V688M800 72V688M1004 72V688" stroke="#94A3B8" stroke-width="1" />
  </g>

  <g fill="none" stroke-linecap="round">
    <path d="M188 172L392 126M188 172L392 248M188 172L392 370M188 294L392 126M188 294L392 248M188 294L392 492M188 416L392 248M188 416L392 370M188 416L392 614M188 538L392 370M188 538L392 492M188 538L392 614" stroke="#38BDF8" stroke-opacity="0.35" stroke-width="2.4" />
    <path d="M392 126L596 172M392 126L596 294M392 248L596 172M392 248L596 416M392 370L596 294M392 370L596 538M392 492L596 172M392 492L596 416M392 614L596 416M392 614L596 538" stroke="#F97316" stroke-opacity="0.34" stroke-width="2.4" />
    <path d="M596 172L800 202M596 172L800 380M596 294L800 202M596 294L800 558M596 416L800 202M596 416L800 380M596 538L800 380M596 538L800 558" stroke="#38BDF8" stroke-opacity="0.38" stroke-width="2.8" />
    <path d="M800 202L1004 306M800 380L1004 306M800 380L1004 454M800 558L1004 454" stroke="#FDBA74" stroke-opacity="0.58" stroke-width="3.8" />

    <path d="M188 294L392 248L596 294L800 380L1004 454" stroke="#38BDF8" stroke-opacity="0.95" stroke-width="5" />
    <path d="M188 416L392 492L596 416L800 380L1004 306" stroke="#F97316" stroke-opacity="0.82" stroke-width="4.5" />
  </g>

  <g opacity="0.72" fill="none" stroke="#CBD5E1" stroke-linecap="round" stroke-width="2">
    <path d="M116 642C154 604 178 603 215 642S279 681 318 642" opacity="0.45" />
    <path d="M874 116C900 164 932 164 958 116S1016 68 1042 116" opacity="0.42" />
  </g>

  <g filter="url(#blueGlow)">
    <circle cx="188" cy="172" r="15" fill="#38BDF8" />
    <circle cx="188" cy="294" r="15" fill="#38BDF8" />
    <circle cx="188" cy="416" r="15" fill="#38BDF8" />
    <circle cx="188" cy="538" r="15" fill="#38BDF8" />
    <circle cx="596" cy="172" r="17" fill="#38BDF8" />
    <circle cx="596" cy="294" r="17" fill="#38BDF8" />
    <circle cx="596" cy="416" r="17" fill="#38BDF8" />
    <circle cx="596" cy="538" r="17" fill="#38BDF8" />
    <circle cx="1004" cy="306" r="18" fill="#38BDF8" />
  </g>

  <g filter="url(#orangeGlow)">
    <circle cx="392" cy="126" r="16" fill="#F97316" />
    <circle cx="392" cy="248" r="16" fill="#F97316" />
    <circle cx="392" cy="370" r="16" fill="#F97316" />
    <circle cx="392" cy="492" r="16" fill="#F97316" />
    <circle cx="392" cy="614" r="16" fill="#F97316" />
    <circle cx="800" cy="202" r="17" fill="#F97316" />
    <circle cx="800" cy="380" r="17" fill="#F97316" />
    <circle cx="800" cy="558" r="17" fill="#F97316" />
    <circle cx="1004" cy="454" r="18" fill="#F97316" />
  </g>

  <g fill="#F8FAFC" opacity="0.78">
    <circle cx="188" cy="172" r="4" />
    <circle cx="188" cy="294" r="4" />
    <circle cx="188" cy="416" r="4" />
    <circle cx="188" cy="538" r="4" />
    <circle cx="392" cy="126" r="4" />
    <circle cx="392" cy="248" r="4" />
    <circle cx="392" cy="370" r="4" />
    <circle cx="392" cy="492" r="4" />
    <circle cx="392" cy="614" r="4" />
    <circle cx="596" cy="172" r="4" />
    <circle cx="596" cy="294" r="4" />
    <circle cx="596" cy="416" r="4" />
    <circle cx="596" cy="538" r="4" />
    <circle cx="800" cy="202" r="4" />
    <circle cx="800" cy="380" r="4" />
    <circle cx="800" cy="558" r="4" />
    <circle cx="1004" cy="306" r="4" />
    <circle cx="1004" cy="454" r="4" />
  </g>

  <g font-family="Inter, Arial, sans-serif" font-size="20" font-weight="700" letter-spacing="2" opacity="0.68">
    <text x="146" y="92" fill="#38BDF8">INPUT</text>
    <text x="362" y="92" fill="#CBD5E1">HIDDEN</text>
    <text x="763" y="92" fill="#CBD5E1">HIDDEN</text>
    <text x="954" y="92" fill="#FDBA74">OUTPUT</text>
  </g>
</svg>
